<svg xmlns="http://www.w3.org/2000/svg" width="122" height="123" viewBox="0 0 122 123" fill="none">
  <g clip-path="url(#clip0_491_513)">
    <mask id="mask0_491_513" style="mask-type:luminance" maskUnits="userSpaceOnUse" x="0" y="1" width="122" height="121">
      <path d="M121.894 1.09375H0.104736V121.683H121.894V1.09375Z" fill="white"/>
    </mask>
    <g mask="url(#mask0_491_513)">
      <path d="M20.3874 40.0536C20.3874 40.0536 20.2547 40.0536 20.2283 40.0011L17.4312 35.0262C17.4312 35.0262 17.4312 34.895 17.4709 34.8687L21.501 32.6504C21.501 32.6504 21.6601 32.6504 21.6865 32.703L22.4687 34.1075C22.4687 34.1075 22.4686 34.265 22.4157 34.2912L20.215 35.4988L20.5067 36.0107L22.5351 34.895C22.5351 34.895 22.6942 34.895 22.7206 34.9474L23.4629 36.2602C23.4629 36.2602 23.4629 36.4177 23.4099 36.4439L21.3817 37.5597L22.1505 38.9248C22.1505 38.9248 22.1505 39.0559 22.1107 39.0823L20.3874 40.0273V40.0536Z" fill="#040000"/>
      <path d="M26.9233 36.5349C26.9233 36.5349 26.9233 36.6662 26.8702 36.6924L25.0937 37.5326C25.0937 37.5326 24.9613 37.5326 24.9347 37.48L22.469 32.3346C22.469 32.3346 22.469 32.2033 22.5219 32.1771L24.2983 31.3369C24.2983 31.3369 24.4309 31.3369 24.4574 31.3895L26.9233 36.5349Z" fill="#040000"/>
      <path d="M28.9646 33.765L31.0194 32.938C31.0194 32.938 31.1785 32.9642 31.1918 33.0168L31.8015 34.5C31.8015 34.5 31.7884 34.6576 31.7353 34.6838L27.7449 36.2983C27.7449 36.2983 27.6123 36.2983 27.5859 36.2326L25.425 30.956C25.425 30.956 25.425 30.8247 25.4913 30.7985L27.3208 30.0635C27.3208 30.0635 27.4532 30.0635 27.4799 30.129L28.9779 33.778L28.9646 33.765Z" fill="#040000"/>
      <path d="M37.4221 26.6514C37.4221 26.6514 37.5547 26.6777 37.568 26.7301L39.2516 32.1776C39.2516 32.1776 39.2251 32.3087 39.172 32.3219L37.2896 32.8994C37.2896 32.8994 37.157 32.8732 37.1437 32.8206L36.4411 30.5498H36.428C36.428 30.5498 36.3882 30.7993 36.2291 31.2586L35.659 32.9258L34.2405 31.8625C33.8428 31.5737 33.6837 31.39 33.6837 31.39H33.6572L34.3598 33.6608C34.3731 33.7132 34.3334 33.792 34.2803 33.8052L32.3979 34.3827C32.3979 34.3827 32.2652 34.3565 32.2521 34.3039L30.5684 28.8566C30.5684 28.8566 30.595 28.7253 30.6479 28.7123L32.2919 28.2134C32.2919 28.2134 32.4243 28.2134 32.4907 28.2528L34.7178 29.9067H34.7311L35.6325 27.2946C35.659 27.2159 35.7121 27.1633 35.7783 27.1503L37.4221 26.6514Z" fill="#040000"/>
      <path d="M43.6263 31.1666C43.2153 31.4685 42.6587 31.6917 42.115 31.8099C40.511 32.1379 39.5698 31.4291 39.3709 30.5103C39.2516 29.9328 39.4505 29.3683 39.9411 28.8696C39.5036 28.5545 39.3047 28.2789 39.2252 27.8851C39.0661 27.0975 39.5565 26.0868 41.028 25.7849C42.4996 25.4831 43.3613 26.2181 43.5335 27.0581C43.6528 27.6358 43.4142 28.2263 42.884 28.7252L43.2551 28.9615C43.3479 28.7646 43.4142 28.5545 43.4408 28.3576C43.4408 28.2657 43.4937 28.2001 43.5999 28.1869L45.2172 27.8589C45.3232 27.8327 45.3894 27.8983 45.4028 27.9638V28.0426C45.5088 28.502 45.3497 29.2634 44.8593 29.9722L46.1053 30.7466C46.1053 30.7466 46.1584 30.786 46.1716 30.8254C46.1716 30.8516 46.1716 30.8909 46.1053 30.9041L43.9976 31.3373C43.9976 31.3373 43.8783 31.3503 43.8252 31.3109L43.613 31.1798L43.6263 31.1666ZM41.386 27.7669C41.6246 27.5832 41.6775 27.4783 41.6644 27.3731C41.6378 27.2814 41.5318 27.1762 41.3462 27.2156C41.1607 27.255 41.0943 27.3731 41.1209 27.4913C41.1474 27.5832 41.2136 27.6488 41.3993 27.7669H41.386ZM42.0488 30.1821L41.4391 29.8015C41.2931 29.9064 41.28 30.0116 41.3064 30.0772C41.3329 30.2085 41.5186 30.3134 41.7837 30.2479C41.8764 30.2215 41.9692 30.1953 42.0488 30.1691V30.1821Z" fill="#040000"/>
      <path d="M53.0255 24.0918C53.0255 24.0918 53.1448 24.1312 53.1581 24.1967L53.8209 29.8543C53.8209 29.8543 53.7812 29.9722 53.7149 29.9854L51.753 30.2085C51.753 30.2085 51.6337 30.1691 51.6204 30.1036L51.342 27.7539H51.3286C51.3286 27.7539 51.2491 27.9902 51.0106 28.4104L50.1357 29.946L48.9292 28.6465C48.5979 28.2923 48.4786 28.0822 48.4786 28.0822H48.4519L48.7303 30.4448C48.7303 30.4974 48.6906 30.5629 48.6243 30.5761L46.6624 30.7992C46.6624 30.7992 46.5431 30.7598 46.5297 30.6943L45.8669 25.0369C45.8669 25.0369 45.9067 24.9188 45.9729 24.9056L47.6831 24.7087C47.7494 24.7087 47.8158 24.7219 47.882 24.7874L49.7644 26.809H49.7777L51.1431 24.4068C51.1829 24.3281 51.2491 24.3019 51.3155 24.2887L53.0255 24.0918Z" fill="#040000"/>
      <path d="M60.8468 26.7828C60.8997 28.6992 59.4017 29.8936 57.6122 29.9462C55.8357 29.9987 54.2449 28.8961 54.1918 26.9797C54.1389 25.0632 55.65 23.8688 57.4264 23.8163C59.2295 23.7637 60.7937 24.8663 60.8468 26.7828ZM56.4057 26.9271C56.4323 27.6623 56.9758 28.0823 57.5591 28.0691C58.1423 28.0559 58.6727 27.5965 58.646 26.8615C58.6196 26.1003 58.0761 25.6801 57.4928 25.6933C56.9094 25.7065 56.3792 26.1659 56.4057 26.9271Z" fill="#040000"/>
      <path d="M63.8958 25.8241C64.0682 26.3099 64.1742 26.8742 64.1742 26.8742H64.2273C64.2273 26.8742 64.3995 26.3099 64.5984 25.8505L65.3805 24.131C65.4336 24.0258 65.4867 24.0128 65.5927 24.0128L67.6739 24.1046C67.6739 24.1046 67.7535 24.144 67.7535 24.1833C67.7535 24.2097 67.727 24.2491 67.6739 24.3672L65.0492 29.9326L63.0606 29.8407L60.9395 24.0652C60.8998 23.9471 60.8733 23.9077 60.8865 23.8683C60.8865 23.8421 60.9131 23.8027 60.966 23.8027L63.0475 23.8947C63.1668 23.8947 63.2064 23.9209 63.2594 24.0258L63.8825 25.7979L63.8958 25.8241Z" fill="#040000"/>
      <path d="M70.1002 30.2361C70.1002 30.2361 70.0338 30.3542 69.9676 30.341L68.0056 30.1441C68.0056 30.1441 67.8994 30.0786 67.8994 30.0128L68.4829 24.3425C68.4829 24.3425 68.5491 24.2243 68.6153 24.2373L70.5773 24.4342C70.5773 24.4342 70.6834 24.5 70.6834 24.5656L70.1002 30.2361Z" fill="#040000"/>
      <path d="M73.3614 28.6331L73.2952 29.0663L76.1585 29.4995C76.1585 29.4995 76.2779 29.6044 76.2645 29.657L76.0525 31.0483C76.0525 31.0483 75.9597 31.1796 75.8935 31.1664L70.9619 30.4182C70.9619 30.4182 70.8558 30.3395 70.8691 30.2871L71.7441 24.6559C71.7441 24.6559 71.8236 24.5508 71.8767 24.5508L76.808 25.299C76.808 25.299 76.9273 25.4041 76.9142 25.4565L76.702 26.848C76.702 26.848 76.6092 26.9792 76.5429 26.9662L73.6796 26.533L73.6131 26.9792L76.1983 27.373C76.1983 27.373 76.3176 27.4779 76.3043 27.5305L76.0923 28.922C76.0923 28.922 75.9995 29.0531 75.9332 29.0399L73.3614 28.6463V28.6331Z" fill="#040000"/>
      <path d="M83.4225 29.5262C83.343 29.5 83.3032 29.4345 83.2901 29.3293C83.2768 28.8569 83.0248 28.5549 82.5742 28.4368C82.0705 28.3056 81.4606 28.5943 81.2751 29.3293C81.0893 30.0382 81.4473 30.5895 81.9776 30.7338C82.4018 30.8389 82.7731 30.7338 83.0381 30.3664C83.1044 30.2744 83.1839 30.2351 83.2768 30.2614L85.0399 30.7208C85.1194 30.747 85.199 30.839 85.1725 30.9439C84.8012 32.3746 83.2237 33.0179 81.5137 32.5715C79.7637 32.1121 78.7032 30.5501 79.1671 28.7912C79.6311 27.0323 81.328 26.1791 83.0779 26.6385C84.8543 27.098 85.822 28.5155 85.464 29.8676C85.4376 29.9726 85.358 30.0382 85.252 30.012L83.4492 29.5394L83.4225 29.5262Z" fill="#040000"/>
      <path d="M87.6789 32.3356L89.7868 33.0443C89.7868 33.0443 89.8928 33.1624 89.8663 33.215L89.3359 34.7244C89.3359 34.7244 89.2166 34.8296 89.1635 34.8164L85.0805 33.4381C85.0805 33.4381 84.9877 33.3463 85.0143 33.2938L86.8834 27.9121C86.8834 27.9121 86.9763 27.8201 87.0294 27.8333L88.8985 28.4634C88.8985 28.4634 88.9913 28.5552 88.9647 28.6077L87.6789 32.3356Z" fill="#040000"/>
      <path d="M95.5539 31.18C95.5539 31.18 95.6598 31.088 95.7129 31.1144L97.5158 31.8888C97.5158 31.8888 97.5953 31.9938 97.5689 32.0463L96.4155 34.6584C95.6465 36.4173 94.1221 37.008 92.2926 36.2334C90.4764 35.459 89.8667 33.9364 90.6355 32.1775L91.7888 29.5654C91.7888 29.5654 91.8948 29.4736 91.9479 29.4998L93.7508 30.2742C93.7508 30.2742 93.8303 30.3792 93.8039 30.4318L92.6772 33.0045C92.3457 33.7527 92.5047 34.2778 93.0482 34.5139C93.5917 34.7502 94.0823 34.5009 94.4138 33.7527L95.5405 31.18H95.5539Z" fill="#040000"/>
      <path d="M95.9242 37.7566C95.9242 37.7566 95.858 37.6515 95.8844 37.5991L98.6949 32.6242C98.6949 32.6242 98.8009 32.5454 98.854 32.5718L101.863 34.2388C103.043 34.895 103.295 35.9057 102.844 36.7065C102.632 37.0739 102.327 37.3102 101.93 37.4152C102.128 37.9009 102.102 38.4129 101.823 38.8984C101.267 39.8961 100.193 40.1062 98.9202 39.4104L95.9375 37.7566H95.9242ZM98.5756 37.297L99.3577 37.7302C99.6759 37.9009 99.8614 37.8747 99.9674 37.6778C100.074 37.4809 100.007 37.297 99.689 37.1265L98.9069 36.6933L98.5623 37.297H98.5756ZM99.5697 35.5251L100.299 35.9319C100.551 36.0764 100.697 36.0107 100.776 35.8664C100.856 35.722 100.816 35.5513 100.538 35.3938L99.8481 35.0132L99.5566 35.5251H99.5697Z" fill="#040000"/>
      <path d="M41.929 59.3484C41.9157 59.1776 41.8759 58.9939 41.7699 58.8626C41.7963 59.0463 41.7699 59.2564 41.6639 59.4139C41.5975 59.4927 41.4915 59.5189 41.412 59.5714C41.054 59.217 40.7625 58.7183 40.2454 58.6001C39.9537 58.5346 39.6489 58.5869 39.3838 58.7183C39.4235 58.6919 39.4633 58.6657 39.5162 58.6263C39.7018 58.482 40.073 58.2983 40.2057 58.2457C40.2852 58.2195 40.4574 58.1538 40.6034 58.1801C40.8818 58.2063 41.3986 58.482 41.7168 58.7313C41.3986 58.1014 40.8154 57.4187 40.0199 57.5369C39.4633 57.5894 38.8932 57.7732 38.4293 58.1014C38.0713 58.4558 37.7267 58.9152 37.6603 59.4271C37.6338 59.9127 38.0051 60.2409 38.4822 60.2277C39.0787 60.2015 39.5824 59.8339 40.073 59.5321C40.0863 59.5321 40.1128 59.5321 40.1261 59.5189C40.1392 59.5189 40.1659 59.5189 40.179 59.5189C40.2852 59.5321 40.5503 59.7028 40.8685 59.8865C41.1071 60.0178 41.3986 60.1621 41.6373 59.9521C41.8097 59.7945 41.9821 59.5976 41.9554 59.3484H41.929Z" fill="#040000"/>
      <path d="M84.9613 50.6459C85.0142 50.5541 85.0539 50.4622 85.1203 50.3834C85.5843 49.8847 85.9025 49.2678 86.1542 48.6377C86.3399 48.0732 86.3664 47.4695 86.2868 46.8788C86.1675 45.973 85.5181 45.2774 85.0275 44.5424C85.0275 44.5424 85.0275 44.5292 85.0275 44.516C85.0275 44.4242 85.0275 44.3455 85.0275 44.2535C85.0275 44.2535 85.0275 44.2273 85.0275 44.2141C85.0408 44.1222 85.0672 44.0434 85.0806 43.9517C85.1335 43.5841 85.2397 43.2296 85.2661 42.8622C85.2794 42.5208 85.2397 42.1796 85.1468 41.8515C84.9082 41.1557 85.0806 41.6414 84.7888 40.9064C84.4707 40.3025 83.967 39.7776 83.3042 39.5281C82.9064 39.3706 82.4689 39.3312 82.0448 39.305C81.5011 39.3312 80.9974 39.5281 80.4937 39.7382C80.4539 39.7382 80.4274 39.7118 80.3877 39.6988C79.9235 39.4361 79.4729 39.1605 79.0619 38.8324C78.651 38.5306 78.2267 38.2286 77.723 38.1104C77.2723 38.0317 76.7684 38.0842 76.3709 38.3073C75.5755 38.7669 75.138 40.0138 75.0716 40.3289C75.032 40.3945 75.0053 40.4732 74.9656 40.5388C74.9524 40.5388 74.9391 40.5388 74.9258 40.5388C74.6607 40.5652 74.3823 40.5782 74.1172 40.6569C73.9448 40.6963 73.746 40.7357 73.6664 40.8932C73.64 40.3289 73.4676 39.8038 73.0434 39.3838C72.6721 38.99 72.142 38.7799 71.6911 38.5174C71.3996 38.3731 71.0946 38.2286 70.7764 38.1498C70.2198 38.0187 69.663 37.9661 69.0928 37.9135C69.0664 37.9135 69.0266 37.9005 69.0002 37.8873C69.0002 37.8873 69.0002 37.8873 68.9868 37.8741C68.9338 37.7692 68.8809 37.6642 68.8411 37.5593C68.7615 37.323 68.682 37.0735 68.5758 36.8373C68.2576 36.2859 67.7672 35.8004 67.1573 35.5771C66.3752 35.3802 65.54 35.3278 64.7446 35.446C64.2011 35.5115 63.6841 35.7478 63.167 35.9315C62.6502 36.1152 62.4247 36.181 62.2656 36.2072C62.2258 36.181 62.1729 36.1546 62.1331 36.1152C61.7752 35.8134 61.457 35.459 61.0726 35.1703C60.8471 35.0128 60.5687 34.9208 60.317 34.8159C59.9059 34.6714 59.4818 34.5796 59.0443 34.5664C58.461 34.6058 57.9175 34.8027 57.3738 35.0258C56.857 35.2227 56.4195 35.5903 56.0085 35.9447C55.8096 36.1152 55.6107 36.2727 55.4252 36.4566C55.213 36.6797 55.0408 36.9292 54.8153 37.1391C54.7226 37.1655 54.6431 37.1785 54.5502 37.2049C54.2454 37.2572 54.3514 37.2442 53.8212 37.2836C53.5428 37.323 53.2644 37.323 52.9991 37.4148C52.4159 37.6117 51.9122 37.9529 51.4482 38.3467C51.236 38.071 50.9841 37.8611 50.7456 37.9005C50.3346 38.058 50.1357 38.2286 49.738 38.3205C49.7116 38.3205 49.6982 38.3205 49.6849 38.3337C49.4994 38.3337 49.3005 38.3337 49.115 38.3073C49.0619 38.3073 48.9957 38.2811 48.9426 38.2679C48.9161 38.2549 48.8897 38.2417 48.863 38.2156C48.4255 37.8086 48.134 37.2836 47.6303 36.9554C47.0337 36.4828 46.2383 36.2859 45.4826 36.4828C44.8065 36.6404 44.1304 36.9292 43.6531 37.4541C43.1892 37.9267 42.9639 38.5436 42.9374 39.1999C42.9108 39.2131 42.8843 39.2262 42.8445 39.2524C42.659 39.318 42.4733 39.3838 42.2877 39.4361C41.2405 39.6724 40.4582 40.5258 39.9414 41.4183C39.7159 41.7989 39.4508 42.1927 39.4244 42.6521C39.411 42.849 39.4244 43.0459 39.4906 43.2296C39.4906 43.256 39.5039 43.269 39.517 43.2954C39.5568 43.4135 39.6099 43.5317 39.6363 43.6496C39.6363 43.689 39.6363 43.7416 39.6363 43.781C39.6363 43.8335 39.6099 43.8859 39.5966 43.9253C39.5568 43.991 39.517 44.0566 39.4773 44.1222C39.4773 44.1222 39.4508 44.1222 39.4375 44.1354C39.0531 44.2929 38.7218 44.5424 38.4167 44.818C37.9263 45.3168 37.8335 46.0386 37.9661 46.6949C38.1252 47.3775 38.5627 47.9814 39.1591 48.362C39.5568 48.5589 39.9812 48.7295 40.4318 48.6901C40.5378 48.6901 40.8428 48.6377 40.9224 48.6245C40.9224 48.6245 40.9224 48.6245 40.9355 48.6245C40.9753 48.874 41.0284 49.4647 41.1477 50.0158C41.1874 50.1603 41.2405 50.2915 41.3068 50.4228C41.3599 50.5541 41.4128 50.6985 41.5189 50.8034C41.8105 51.0791 42.1949 51.2498 42.5795 51.3679C42.9241 51.4467 43.282 51.3415 43.6002 51.1972C43.6267 51.1972 43.6531 51.171 43.6664 51.1578C43.7195 51.276 43.7724 51.4073 43.8255 51.5254C43.852 51.591 43.9051 51.7747 43.9315 51.8799C43.9315 51.8929 43.9315 51.9192 43.9315 51.9322C43.9315 51.9322 43.9315 51.9322 43.9315 51.9454C43.8255 52.2867 43.852 52.1817 43.7724 52.3918C43.6133 52.8512 43.7327 53.3893 44.0508 53.7569C44.0775 53.7963 44.1172 53.8357 44.1437 53.875C43.8653 53.9538 43.6133 54.0849 43.3616 54.2163C43.3218 54.2163 43.282 54.2163 43.2423 54.2163C43.2025 54.2163 43.176 54.2031 43.1363 54.1899C42.4999 53.8487 41.8105 53.6256 41.1079 53.4287C40.4849 53.2318 39.8221 53.153 39.1724 53.245C39.1062 53.245 39.0398 53.258 38.9735 53.2712C38.6289 53.3499 38.2974 53.5074 38.019 53.7305C37.7275 53.9538 37.4889 54.2163 37.2767 54.5181C36.9585 55.0563 36.7465 55.6601 36.5079 56.2377C36.4946 56.277 36.4681 56.3032 36.4548 56.3426C36.3752 56.4214 36.309 56.5001 36.2295 56.5789C35.7389 56.8677 35.2616 57.1828 34.8375 57.5634C34.5855 57.8129 34.4264 58.1541 34.3204 58.4823C34.1482 58.9811 34.1084 59.506 34.1482 60.018C34.1482 60.3856 34.2409 60.74 34.4795 61.0286C34.6253 61.2387 34.7712 61.4488 34.9832 61.6061C35.1556 61.79 35.3014 62 35.434 62.2232C35.3943 61.9606 35.328 61.7113 35.2219 61.4618C35.1954 61.3962 35.1423 61.3307 35.1159 61.2649C35.0894 61.16 35.023 61.0286 34.9966 60.9237C34.9303 60.6742 34.8639 60.5561 34.8906 60.3856C34.917 60.2148 35.0363 59.6767 35.169 59.3617C35.4076 58.8891 35.4738 58.7842 35.6727 58.6003C35.7124 58.5741 35.7522 58.5611 35.792 58.5347C36.9321 57.944 37.0116 58.1409 37.7673 57.4584C38.271 56.9071 38.4832 56.1851 38.8807 55.5682C38.8807 55.555 38.9073 55.5288 38.9205 55.5156C39.0531 55.3845 39.1857 55.2532 39.3315 55.122C39.3713 55.0956 39.3977 55.0826 39.4375 55.0694C39.4641 55.0694 39.4906 55.0563 39.517 55.0563C39.875 55.0039 39.7292 54.9775 40.3389 55.0039C41.3201 55.135 41.2139 55.1088 42.1949 55.2925C42.5795 55.3845 42.9639 55.5288 43.3616 55.4501C43.7593 55.4107 44.0775 55.1482 44.3559 54.8857C44.369 54.8725 44.3823 54.8594 44.4088 54.8464C44.5281 54.7676 44.6607 54.6888 44.78 54.6363C44.9789 54.6363 45.2175 54.7018 45.4693 54.807C45.4693 54.8594 45.4693 54.8987 45.4693 54.9513C45.4959 54.9119 45.5091 54.8725 45.5357 54.8332C45.9732 55.0169 46.4371 55.3451 46.7287 55.8045C46.6491 55.2925 46.1852 54.6231 45.6284 54.2031C45.6019 54.0062 45.5091 53.8619 45.2838 53.8093C45.2042 53.7699 44.9789 53.6911 44.9789 53.6781C44.9656 53.6781 44.8994 53.6388 44.8729 53.6124C44.78 53.5074 44.7403 53.3893 44.6872 53.1398C44.6872 53.1268 44.6872 53.1136 44.6872 53.0874C44.6872 53.0874 44.6872 53.0611 44.6872 53.0481C44.7005 52.9823 44.727 52.9167 44.7403 52.8512C45.1909 52.2998 45.3898 51.906 45.0982 50.7378C45.0849 50.6459 45.0585 50.5541 45.0451 50.4622C45.0982 49.8453 45.0716 50.029 45.1644 49.6484C45.1909 49.5826 45.2042 49.5171 45.2307 49.4515C45.244 49.4253 45.2573 49.3989 45.2838 49.3595C45.3235 49.3202 45.3633 49.2678 45.4164 49.2284C45.6417 49.0971 45.8803 49.0051 46.0925 48.8608C46.5167 48.5983 46.742 48.1388 46.8613 47.6794C47.0204 47.1674 47.0999 46.6293 47.0071 46.1044C46.9542 45.7893 46.8082 45.4873 46.742 45.1723C46.742 45.0017 46.742 44.8442 46.742 44.6735C46.742 44.4766 46.8215 44.2797 46.8613 44.2009C46.8878 44.1354 47.1795 43.8991 47.3519 43.7416C47.6701 43.4791 48.0014 43.1641 48.4124 43.0459C48.1207 43.0065 47.8423 43.0721 47.5639 43.1641C47.1795 43.2954 46.7951 43.4265 46.4371 43.6102C45.8937 43.9647 45.7079 44.6473 45.6019 45.251C45.5886 45.6318 45.6815 46.0256 45.6417 46.4062C45.6019 46.6425 45.5091 46.8524 45.4164 47.0757C45.3633 47.1938 45.3102 47.325 45.244 47.4431C45.244 47.4431 45.2175 47.4431 45.2042 47.4563C44.9391 47.5876 44.6343 47.6794 44.3957 47.8763C44.1437 48.06 43.9315 48.2963 43.7858 48.5719C43.4676 49.202 43.4411 49.924 43.5207 50.6065C43.5207 50.7116 43.5736 50.8034 43.6133 50.8954C43.6267 50.9479 43.6531 50.9873 43.6664 51.0397C43.2025 51.1184 42.7915 51.0923 42.4468 50.7246C42.0093 50.344 42.1153 50.4096 42.0491 49.9634C42.0358 49.7401 42.0756 49.5041 42.0756 49.2808C42.1022 48.8214 42.2215 48.362 42.1022 47.9157C41.89 47.2068 41.0681 47.2068 40.4451 47.1806C40.4318 47.1806 40.4053 47.1806 40.392 47.1674C40.2991 47.1151 40.2065 47.0625 40.1136 47.0099C40.0474 46.9444 39.9943 46.8788 39.9281 46.8C39.9016 46.7475 39.875 46.7081 39.8485 46.6555C39.8221 46.5899 39.8088 46.5244 39.7823 46.4456C39.7823 46.4194 39.7823 46.393 39.769 46.3668C39.769 46.2881 39.769 46.2093 39.769 46.1306C39.8883 46.0386 39.8352 46.065 40.2065 45.8681C40.909 45.6186 41.3599 44.923 41.5454 44.2273C41.6647 43.7284 41.6116 43.2166 41.4394 42.7441C41.5985 42.4552 41.7707 42.1796 41.9562 41.9039C42.1153 41.7334 42.2744 41.5627 42.4468 41.4183C42.4999 41.392 42.5528 41.3526 42.6059 41.3264C43.282 41.1295 44.0377 40.9458 44.5016 40.4076C44.6741 40.2107 44.7934 39.9745 44.8596 39.725C44.9125 39.4887 44.8994 39.2392 44.9125 39.0032C44.9258 38.9374 44.9523 38.8718 44.9789 38.7931C45.0187 38.7275 45.0716 38.6617 45.1114 38.5962C45.1778 38.5306 45.244 38.4648 45.3102 38.3993C45.3369 38.3861 45.3633 38.3599 45.3898 38.3467C45.5488 38.2417 45.7079 38.1762 45.8803 38.0974C45.9599 38.071 46.0925 38.0187 46.1985 38.0055C46.2914 38.0055 46.3709 38.0055 46.4636 38.0055C46.5167 38.0187 46.5696 38.0317 46.6227 38.058C46.6889 38.0842 46.742 38.1104 46.7951 38.1236C46.7951 38.1236 46.8215 38.1236 46.8349 38.1368C47.617 38.4912 48.1207 39.5413 49.4729 39.1869C49.7778 39.1475 50.0562 39.0162 50.3082 38.8324C50.507 38.7011 50.6792 38.5436 50.8516 38.3861C50.8516 38.3861 50.8781 38.3599 50.8914 38.3467C50.9841 38.3861 51.0769 38.4518 51.1829 38.5174C51.1698 38.5306 51.1432 38.5436 51.13 38.57C50.6528 39.0817 50.4141 39.7776 50.4141 40.4732C50.4141 40.867 50.4406 40.8276 50.3213 41.1295C49.9767 41.694 49.5392 42.2058 49.0619 42.6783C49.5525 42.442 50.0031 42.1534 50.4275 41.8251C50.5997 41.6808 50.7854 41.5365 50.9312 41.3526C51.0107 41.1951 51.1167 41.0507 51.1565 40.88C51.3818 40.04 51.4084 39.9745 51.8062 39.5675C51.8326 39.4887 52.3099 39.2786 52.7207 39.0555C52.9329 38.99 53.1318 38.9112 53.3439 38.8718C53.3571 38.8718 53.3704 38.8718 53.3837 38.8718C53.8874 38.8718 54.3911 38.9638 54.8949 38.8718C55.7698 38.8456 56.1809 38.3337 56.7508 37.7692C57.0954 37.4805 57.4534 37.1917 57.8113 36.9028C58.3815 36.601 58.1826 36.7059 59.0443 36.4566C59.0707 36.4566 59.1105 36.4566 59.1371 36.4566C59.2564 36.4828 59.3889 36.5222 59.5082 36.5484C59.6275 36.5878 59.7468 36.6272 59.8661 36.6665C59.8795 36.6665 59.8928 36.6797 59.9192 36.6929C60.476 37.1917 60.9931 37.8086 61.7486 38.0317C62.6633 38.2156 63.5516 37.756 64.3868 37.4673C65.1423 37.2442 64.9965 37.2966 65.3545 37.2704C65.686 37.2704 66.0306 37.2704 66.3619 37.323C66.4017 37.323 66.4548 37.336 66.4945 37.3492C66.5079 37.3492 66.5343 37.3754 66.5476 37.3754C66.6272 37.4541 66.7067 37.5329 66.7863 37.6249C66.9718 38.1498 67.1309 38.7143 67.5286 39.1343C67.7937 39.4231 68.1516 39.6069 68.5229 39.7118C68.8809 39.7906 69.2519 39.8038 69.6099 39.8431C69.6894 39.8431 69.7027 39.8431 69.7027 39.8431C70.1005 39.8957 70.4849 39.9875 70.8559 40.1582C70.7764 40.1188 70.6968 40.0926 70.6306 40.0532C70.7366 40.1056 70.8559 40.145 70.9621 40.1976C71.2139 40.3157 71.4658 40.4338 71.7309 40.552C71.7045 40.552 71.678 40.5258 71.6647 40.5258C71.6911 40.5258 71.7178 40.552 71.7442 40.5652C71.7973 40.6176 71.8502 40.6701 71.9166 40.7225C71.9166 40.7225 71.9166 40.7357 71.9166 40.7489C71.9431 40.8145 71.9564 40.867 71.9829 40.9326C71.9829 40.9852 72.0093 41.0507 72.0093 41.1033C72.0093 41.0245 71.9962 40.9588 71.9829 40.88C71.9829 40.9982 72.0093 41.1033 72.0226 41.2214C72.0226 41.2214 72.0226 41.2344 72.0226 41.2476C72.0226 41.2476 72.0226 41.2738 72.0226 41.3002C71.9829 42.0484 72.0624 42.7965 72.7914 43.2034C73.2025 43.4135 73.6664 43.4135 74.1039 43.4659C74.2497 43.4923 74.3956 43.5185 74.5414 43.571C75.1777 43.8071 74.9922 43.676 75.3766 44.0566C75.3766 44.0434 75.3766 44.0566 75.4031 44.096C75.4164 44.1354 75.4428 44.1748 75.4562 44.2141C75.5091 44.3585 75.5886 44.4766 75.6152 44.6211C75.6417 44.8048 75.655 44.9755 75.6681 45.1593C75.6681 45.3955 75.5488 45.6186 75.4826 45.8549C75.4562 45.9599 75.4031 46.065 75.4031 46.1699C75.4295 46.065 75.5091 45.9862 75.5755 45.8943C75.7346 45.658 75.9465 45.4479 76.013 45.1593C76.0527 44.923 76.119 44.6999 76.119 44.4636C76.119 44.2929 76.0792 44.1354 76.0527 43.9647C76.013 43.6496 75.8141 43.361 75.6019 43.1115C75.3102 42.8752 75.0053 42.6521 74.6607 42.4946C74.263 42.3109 73.905 42.2189 73.6929 42.1402C73.746 41.9958 73.7991 41.8645 73.852 41.7202C73.8786 41.6282 74.0377 41.3526 74.0906 41.2344C74.157 41.2344 74.2365 41.2344 74.3028 41.2344C74.3425 41.2344 74.4485 41.2344 74.5149 41.2476C74.78 41.287 75.0451 41.3526 75.3102 41.287C75.7875 41.1427 76.0261 40.6437 76.2647 40.2501C76.5034 39.8957 76.3576 40.0794 76.742 39.6724C76.7818 39.6462 76.8082 39.62 76.8348 39.5937C76.8877 39.5675 76.9408 39.5281 76.9939 39.5019C76.9939 39.5019 76.9939 39.5019 77.0071 39.5019C77.0735 39.5019 77.153 39.5019 77.2059 39.5019C77.6965 39.7906 77.6701 39.8825 78.3329 40.46C78.8101 40.8406 79.3005 41.2608 79.8971 41.4577C80.255 41.5889 80.6528 41.6282 81.0107 41.4839C81.1698 41.4183 81.3156 41.3658 81.4613 41.3002C81.6471 41.2344 81.8326 41.1689 82.0315 41.1295C82.111 41.1295 82.1905 41.1295 82.2701 41.1557C82.3099 41.1557 82.3496 41.1557 82.3894 41.1821C82.4556 41.1821 82.5087 41.2083 82.5749 41.2344C82.5749 41.2344 82.6016 41.2344 82.6147 41.2476C82.6545 41.2738 82.6811 41.287 82.7076 41.3132C82.7605 41.3526 82.8002 41.392 82.84 41.4445C82.9196 41.5627 82.986 41.6808 83.0389 41.8121C83.0389 41.8383 83.0522 41.8515 83.0655 41.8777C83.0787 41.9171 83.092 41.9433 83.1053 41.9827C83.1582 42.1402 83.2113 42.2977 83.2377 42.4684C83.2377 42.5734 83.2377 42.6653 83.2377 42.7703C83.1317 43.3478 82.9593 43.9253 83.0124 44.516C83.0389 44.8442 83.1184 45.1723 83.3042 45.4479C83.5428 45.7893 83.7814 46.1174 84.02 46.4588C84.126 46.6161 84.2056 46.7736 84.2718 46.9444C84.2718 46.9444 84.2718 46.9575 84.2718 46.9705C84.2718 46.9837 84.2718 46.9969 84.2718 47.0099C84.2718 47.1019 84.2718 47.1938 84.2851 47.2856C84.2851 47.3907 84.2851 47.4825 84.2851 47.5876C84.2585 47.7188 84.232 47.8369 84.1789 47.955C84.0332 48.2569 83.8874 48.5719 83.6752 48.8346C83.6355 48.874 83.609 48.9002 83.5692 48.9395C83.0124 49.5564 82.7738 50.4228 82.9329 51.2498C82.986 51.6042 83.1317 51.9322 83.198 52.2737C83.3173 52.9561 83.2644 52.4967 83.2908 53.0743C83.1053 53.5074 83.198 53.3893 83.0389 53.6256C82.4159 53.7437 82.1374 54.1243 82.0712 54.7412C82.0315 55.122 82.0448 55.5156 82.005 55.8964C81.9386 56.369 82.005 56.2377 81.8857 56.6446C81.8326 56.6708 81.7664 56.684 81.7 56.697C81.3818 56.7758 80.9974 56.7758 80.6263 56.8809C80.5468 56.9071 80.4539 56.9203 80.361 56.9333C80.2019 56.5265 80.0031 56.1327 79.8042 55.7389C79.738 55.6076 79.6585 55.4632 79.5922 55.3319C79.5922 55.3057 79.5789 55.2795 79.5658 55.2532C79.5391 55.1614 79.526 55.0826 79.5127 54.9907C79.4862 54.7282 79.4862 54.4656 79.5127 54.2163C79.6585 53.6518 79.8309 53.0874 79.8838 52.5099C79.9369 51.7485 79.8176 50.9479 79.4067 50.3047C79.2476 50.0552 79.0354 49.8453 78.7968 49.6614C78.5582 49.4647 78.3195 49.2678 78.0678 49.0971C77.1928 48.5457 76.5034 47.7451 75.8272 46.8656C76.1985 47.8895 76.6491 48.9264 77.4181 49.7271C77.9351 50.3047 78.2664 50.764 78.2931 50.9085C78.3329 51.0135 78.346 51.1184 78.3726 51.2366C78.3726 51.3153 78.3726 51.3941 78.3726 51.4729C78.3858 52.1291 78.3062 52.3654 77.9485 53.258C77.6036 53.9932 77.5374 54.8332 77.6701 55.6338C77.7627 56.1457 78.0545 56.6053 78.2664 57.0776C78.6642 57.9046 78.6113 57.8129 78.7173 58.3116C78.7173 58.4953 78.7173 58.666 78.7173 58.8497C78.6377 59.1648 78.5317 59.4666 78.4124 59.7687C78.3062 59.9918 78.2002 60.228 78.0678 60.4379C77.8689 60.6348 77.6832 60.8449 77.5507 61.0944C77.3917 61.4094 77.2988 61.7637 77.3121 62.1181C77.3519 62.5907 77.3917 63.05 77.4181 63.5226C77.3917 64.284 77.4048 64.0739 77.3252 64.4677C77.2723 64.704 77.2059 64.9403 77.1133 65.1634C77.0866 65.2291 77.0468 65.2947 77.0204 65.3603C77.0204 65.3734 77.0071 65.3866 76.9939 65.3996C76.9144 65.4784 76.8215 65.5572 76.7287 65.6359C76.636 65.7017 76.5431 65.7541 76.4371 65.7934C76.384 65.8066 76.3443 65.8328 76.3045 65.8592C76.225 65.8854 76.1323 65.9116 76.0527 65.951C76.0792 65.951 76.0925 65.938 76.0527 65.951C75.7477 66.0165 75.4428 66.1347 75.2042 66.3447C74.5945 66.8699 74.3559 67.6573 74.1039 68.3925C74.1039 68.4055 74.1039 68.4187 74.0906 68.4319C73.9581 68.7076 73.8122 68.983 73.6664 69.2587C73.6135 69.3113 73.5604 69.3768 73.5073 69.4294C73.4676 69.4556 73.4278 69.482 73.388 69.495C73.3351 69.5213 73.2687 69.5607 73.2158 69.5869C73.2953 69.5607 73.3749 69.5213 73.4544 69.495C73.3085 69.5475 73.1627 69.6131 73.0169 69.6789C72.9505 69.7051 72.871 69.7182 72.8048 69.7444C72.6324 69.7051 72.4601 69.6657 72.2877 69.6001C71.9564 69.4688 71.6249 69.3768 71.267 69.3506C71.0019 69.3638 70.7366 69.4032 70.4849 69.482C70.0076 69.6395 69.5437 69.8232 69.1193 70.0989C68.6553 70.4007 68.271 70.7945 67.8732 71.1883C67.4755 71.6083 67.038 71.9891 66.5874 72.3565C66.415 72.5272 66.2295 72.6716 66.0306 72.8291C65.9908 72.8553 65.9511 72.8816 65.9246 72.8946C65.8053 72.8946 65.686 72.9078 65.5667 72.9078C65.5002 72.9078 65.434 72.9078 65.3678 72.9078C65.3412 72.9078 65.328 72.9078 65.3014 72.8946C64.7844 72.7635 64.294 72.5666 63.7636 72.5272C62.7826 72.4485 61.9872 72.9078 61.4437 73.6691C61.2979 73.6691 61.1522 73.7478 61.0329 73.8266C60.9002 73.9185 60.7411 73.9841 60.5954 74.0499C60.5687 74.0499 60.5423 74.0629 60.5025 74.076C60.476 74.076 60.4363 74.076 60.423 74.0892C60.3699 74.0892 60.3301 74.0892 60.2772 74.0892C60.1976 74.0892 59.8397 74.0499 59.8132 74.0499C59.6011 74.0105 59.3758 73.9053 59.1636 73.9841C59.0178 73.9317 58.8719 73.8923 58.7261 73.866C58.5272 73.8136 58.3152 73.7872 58.1031 73.8136C58.1031 73.8136 58.1031 73.8136 58.0897 73.8136C58.0633 73.8136 58.05 73.8136 58.05 73.8136C58.0235 73.8136 57.9837 73.8136 57.9573 73.8004C57.6258 73.7872 57.3076 73.8791 57.0159 73.9973C56.7377 74.0892 56.4724 74.181 56.194 74.2861C56.194 74.2861 56.2073 74.2861 56.2206 74.2861C56.2206 74.2861 56.2073 74.2861 56.194 74.2861C56.1676 74.2861 56.1278 74.2861 56.1013 74.2861C56.088 74.2861 56.0747 74.2861 56.0616 74.2861C56.0085 74.2598 55.9554 74.2204 55.9025 74.1942C55.8758 74.1942 55.8627 74.168 55.8361 74.1548C55.8096 74.1286 55.7963 74.1154 55.7698 74.0892C55.7698 74.0892 55.7698 74.076 55.7434 74.0629C55.4914 73.8266 55.1999 73.6429 54.8684 73.5247C54.8286 73.5247 54.7889 73.4985 54.7624 73.4854C54.7358 73.4722 54.7093 73.4592 54.6829 73.446C53.9801 73.0915 53.2908 72.6716 52.4954 72.5796C52.4556 72.5796 52.4159 72.5666 52.3761 72.5534C52.1243 72.5008 51.8591 72.514 51.6073 72.5534C51.1167 72.606 50.6528 72.8029 50.202 73.026C49.8042 73.2491 49.3934 73.4853 48.9692 73.6823C48.9161 73.6954 48.8764 73.7084 48.8233 73.7084C48.7704 73.7084 48.7306 73.7084 48.6775 73.7084C48.6113 73.6954 48.5317 73.6691 48.4653 73.6429C48.0014 73.4066 47.5772 73.0915 47.1397 72.8159C47.0735 72.7765 47.0204 72.7371 46.9542 72.6847C46.8349 72.5666 46.7156 72.4485 46.5962 72.3171C46.5696 72.2909 46.5565 72.2516 46.5298 72.2252C46.5298 72.2252 46.5167 72.199 46.5034 72.199C46.49 72.1728 46.4636 72.1464 46.4238 72.107C46.3707 72.0283 46.3045 71.9495 46.2383 71.884C46.1587 71.7658 46.0792 71.6609 45.9863 71.5559C45.867 71.4508 45.7477 71.359 45.6284 71.2671C45.3369 71.057 44.9789 70.8865 44.621 70.8471C44.3559 70.8077 44.0906 70.7683 43.8255 70.7813C43.6531 70.7813 43.4809 70.8207 43.3085 70.8207C43.0567 70.8339 42.7915 70.7945 42.5397 70.7813C42.4733 70.7813 42.4335 70.7813 42.4204 70.7813C42.3806 70.7813 42.3408 70.7683 42.3011 70.7551C42.2877 70.7551 42.2744 70.7419 42.2613 70.7289C41.7309 70.4533 41.2405 70.0989 40.7366 69.7706C40.7235 69.7576 40.7102 69.7444 40.6969 69.7312C40.6173 69.6525 40.4318 69.4162 40.3787 69.3638C40.286 69.2325 40.2065 69.0882 40.1403 68.9438C40.1136 68.8651 40.0872 68.7863 40.0474 68.7206C39.9545 68.4581 39.9016 68.1824 39.7823 67.92C39.2122 66.8567 38.6289 66.8829 38.1119 66.8041C37.6213 66.686 37.7804 66.7254 37.4491 66.5678C36.9983 66.2922 37.0116 66.3316 36.6272 65.9116C36.6139 65.8854 36.6006 65.8592 36.5874 65.846C36.4681 65.6229 36.5343 65.7411 36.4283 65.439C36.2162 64.7696 36.0306 64.1003 35.7522 63.457C35.8051 64.0871 35.792 64.7302 35.8184 65.3734C35.8184 65.7279 35.8318 66.0823 35.9908 66.4103C36.3355 67.0404 36.8658 67.5917 37.5153 67.92C37.8599 68.0643 38.0721 68.143 38.1914 68.1824C38.2312 68.2612 38.2843 68.3399 38.3241 68.4187C38.3241 68.4187 38.3241 68.4319 38.3241 68.4449C38.3638 68.563 38.377 68.6944 38.3903 68.8257C38.3903 68.8257 38.3903 68.8257 38.3903 68.8125C38.4565 69.495 38.6951 70.1514 39.1062 70.7026C39.3315 71.044 39.6099 71.3326 39.9678 71.5559C40.0607 71.6215 40.1403 71.6871 40.2329 71.7528C40.3258 71.8316 40.4053 71.8971 40.5113 71.9627C40.8957 72.2516 41.3201 72.5009 41.7707 72.6716C42.1022 72.7503 42.4468 72.7897 42.7783 72.8159C43.017 72.8291 43.2423 72.8553 43.4809 72.8159C43.7593 72.7897 44.0377 72.7765 44.3161 72.8159C44.3559 72.8159 44.3957 72.8423 44.4354 72.8553C44.4883 72.8816 44.5281 72.9078 44.5812 72.9472C44.621 72.9734 44.6474 73.0128 44.6741 73.0392C44.7667 73.1573 44.8463 73.2754 44.9391 73.3804C45.4826 74.2204 46.4105 74.7193 47.2457 75.2443C47.6701 75.4805 48.1207 75.6774 48.598 75.7168C48.8366 75.7168 49.0619 75.6774 49.3005 75.6512C49.7911 75.5461 50.2417 75.2836 50.6925 75.0605C51.488 74.6012 51.2494 74.7061 51.8724 74.5354C51.9255 74.5354 51.9386 74.5354 51.9255 74.5354C51.9386 74.5354 51.9519 74.5354 51.9784 74.5354C52.005 74.5354 52.0315 74.5354 52.0579 74.5354C52.1375 74.5486 52.217 74.5618 52.2834 74.5748C52.363 74.588 52.4292 74.6012 52.5087 74.6274C52.5883 74.6406 52.6678 74.6667 52.7474 74.6929C52.7605 74.6929 52.7871 74.7061 52.8003 74.7193C53.3042 74.9686 53.7814 75.2574 54.2983 75.4412C54.3116 75.4412 54.3249 75.4674 54.338 75.4674C54.3778 75.5067 54.4176 75.5461 54.4707 75.5855C54.4707 75.5855 54.484 75.5987 54.5105 75.6249C54.7889 75.8743 55.1204 76.058 55.4781 76.1894C55.6903 76.2288 55.9156 76.2943 56.1278 76.2813C56.2206 76.2813 56.3133 76.2549 56.4062 76.2419C56.4991 76.2419 56.5917 76.2288 56.6846 76.2026C56.8304 76.1632 56.963 76.0844 57.0954 76.0319C57.3872 75.9137 57.6789 75.7824 57.9573 75.6512C57.9704 75.6512 57.9837 75.6512 57.9971 75.6512C58.3417 75.7694 58.673 75.9399 59.0178 76.0844C59.1636 76.15 59.3093 76.2026 59.4684 76.2156C59.5613 76.2156 59.6542 76.2156 59.7337 76.1762C59.7468 76.1762 59.7735 76.1762 59.7866 76.1762C59.8397 76.1632 59.9059 76.1238 59.959 76.0844C60.065 76.0319 60.1579 75.9925 60.2505 75.9269C60.2772 75.9005 60.3036 75.8875 60.3301 75.8743C60.4627 75.8611 60.5954 75.8218 60.7278 75.7562C61.0062 75.6119 61.2715 75.428 61.5232 75.2443C61.7883 75.0605 62.0667 74.8898 62.3054 74.6667C62.3849 74.588 62.4778 74.5092 62.5706 74.4437C62.6235 74.4043 62.6766 74.3779 62.7297 74.3385C62.7826 74.3123 62.8224 74.2729 62.8755 74.2468C62.9815 74.2074 63.0875 74.181 63.1937 74.1548C63.2997 74.1548 63.3925 74.1548 63.4985 74.168C63.6178 74.1942 63.7372 74.2336 63.8565 74.2729C63.8829 74.2729 63.9096 74.2991 63.9493 74.2991C64.0289 74.3385 64.1349 74.3779 64.2277 74.4173C64.917 74.7717 65.7124 74.9424 66.4945 74.7981C67.0647 74.6536 67.5286 74.2598 67.9661 73.8923C68.5494 73.4198 69.0795 72.9078 69.6099 72.3827C70.1402 71.884 70.0871 71.9233 70.3125 71.7922C70.4451 71.7134 70.5777 71.6477 70.7235 71.5821H70.7499C70.9223 71.5033 71.1079 71.4508 71.2934 71.4114C71.5587 71.4772 71.8105 71.5821 72.0757 71.674C72.3408 71.7396 72.6059 71.7922 72.871 71.8052C73.1494 71.8052 73.4147 71.7528 73.6797 71.6477C73.8653 71.5953 74.0377 71.4902 74.2232 71.4246C74.1437 71.4508 74.0641 71.4902 73.9846 71.5165C74.0906 71.4772 74.1835 71.4378 74.2894 71.3984C74.9127 71.0964 75.4031 70.5714 75.6681 69.9545C75.9732 69.4162 76.1587 68.8125 76.384 68.235C76.3974 68.1956 76.4238 68.1692 76.4371 68.1299C76.4636 68.0775 76.4902 68.0381 76.53 67.9855C76.53 67.9855 76.53 67.9855 76.5431 67.9723C76.6493 67.9461 76.742 67.92 76.8348 67.8806C77.5772 67.6705 78.2798 67.2243 78.7437 66.6204C79.2343 65.846 79.4465 64.9141 79.4994 64.0083C79.526 63.457 79.4465 62.9189 79.4198 62.3676C79.4198 62.302 79.4067 62.2362 79.4067 62.1707C79.4067 62.1707 79.4067 62.1575 79.4067 62.1445C79.4067 62.1181 79.4332 62.1051 79.4465 62.0787C79.7645 61.79 79.99 61.4094 80.1622 61.0156C80.4539 60.4118 80.7058 59.7817 80.7854 59.1122C80.8252 58.5873 80.7854 58.0491 80.6528 57.5372C80.6528 57.5108 80.6394 57.4978 80.6263 57.4714C80.6394 57.4714 80.6661 57.4714 80.6792 57.4714C80.9312 57.4714 81.1829 57.4978 81.4349 57.5372C81.7928 57.6028 82.1772 57.629 82.522 57.4846C82.8667 57.3139 82.9727 56.9071 83.1184 56.5789C83.2644 56.1589 83.3968 55.7389 83.4897 55.3057C83.4897 55.2663 83.503 55.2402 83.5161 55.2138C83.715 55.1876 83.9139 55.135 84.0863 55.0301C84.3911 54.8332 84.6033 54.5443 84.7888 54.2425C84.9215 54.0194 85.0672 53.8093 85.1335 53.56C85.3059 52.7066 85.1203 51.8535 84.9613 51.0135C84.9613 50.9347 84.9613 50.856 84.9613 50.7904C84.9613 50.751 84.9744 50.6985 84.9877 50.6591L84.9613 50.6459Z" fill="#040000"/>
      <path d="M57.3339 54.0332C57.241 53.9939 57.1879 53.8757 57.2808 53.797C57.4001 53.692 57.5725 53.6656 57.7183 53.6262C57.9038 53.5869 58.0895 53.5345 58.2751 53.4819C58.633 53.39 58.991 53.2982 59.362 53.2063C59.3754 51.723 58.6728 50.4892 57.599 50.2923C56.3396 50.069 55.0404 51.3818 54.7089 53.2194C54.3776 55.0571 55.12 56.7373 56.3927 56.9604C57.493 57.1573 58.6197 56.1859 59.1103 54.7157C58.5402 54.427 57.9436 54.2301 57.347 54.02L57.3339 54.0332Z" fill="#040000"/>
      <path d="M45.0977 62.5249C44.6337 62.656 44.2891 62.9843 43.9312 63.2861C43.8118 63.3649 43.1755 63.6931 42.6718 63.7457C42.3934 63.785 41.7968 63.6931 41.4255 63.5881C42.0088 64.1131 42.7778 64.4675 43.5732 64.3362C43.8383 64.2968 44.1034 64.2838 44.3553 64.1787C44.6204 64.0737 44.859 63.9162 45.111 63.7719C45.111 63.7719 45.1241 63.7719 45.1374 63.7719C45.1772 63.7587 45.217 63.7457 45.2568 63.7325C45.2568 63.798 45.2568 63.8636 45.2568 63.9294C45.2303 64.3887 45.1241 64.73 44.859 65.2289C44.6866 65.5963 44.488 65.8982 44.3156 66.0821C44.1698 66.2526 44.0107 66.4233 43.7985 66.5415C43.7057 66.594 43.613 66.6334 43.5068 66.6728C43.5466 66.6728 43.5732 66.6728 43.613 66.6728C44.8193 66.7384 46.1449 65.2945 46.3704 64.1918C46.6221 63.2073 46.2908 62.3018 45.111 62.5379L45.0977 62.5249Z" fill="#040000"/>
      <path d="M80.7851 47.2981C80.7851 47.2981 80.7718 47.2323 80.7584 47.2062C80.7584 47.1274 80.7584 46.9173 80.7718 46.8385C80.8513 46.0118 80.9442 44.6728 79.9632 44.3578C79.6715 44.2397 79.3533 44.3184 79.0484 44.384C78.5447 44.5021 78.0408 44.6728 77.5371 44.7778C78.2132 44.9747 79.128 44.9617 79.5388 45.0796C79.5655 45.0928 79.5919 45.106 79.6184 45.1322C79.6184 45.1322 79.645 45.1584 79.6582 45.1716C79.6715 45.2242 79.6979 45.3029 79.7112 45.3685C79.7377 45.9592 79.5786 46.5367 79.5919 47.1142C79.6582 48.3482 80.6922 48.3482 81.1959 48.5057C81.3021 48.5057 81.6467 49.1226 81.6601 49.6475C81.6865 49.8444 81.713 50.0807 81.5805 50.2514C81.7527 50.1727 81.8456 49.9889 81.9118 49.8182C81.9914 49.582 82.0576 49.3327 82.0842 49.0832C82.1505 47.6 81.2888 47.6787 80.7982 47.2981H80.7851Z" fill="#040000"/>
      <path d="M48.3721 41.3794C48.1732 40.7887 47.5502 40.7887 47.0067 40.9987C46.9934 40.9987 46.9802 40.9987 46.9669 40.9987C46.4632 41.0643 46.1317 41.5107 46.0389 41.9831C46.0124 42.1276 45.9991 42.2719 45.986 42.4294C45.986 42.4294 45.9593 42.4294 45.9462 42.4294C45.5882 42.495 45.7209 42.5082 45.3761 42.482C45.1243 42.4688 44.859 42.4294 44.6073 42.4426C44.3819 42.4556 44.1698 42.5476 43.9576 42.6395C43.3743 42.9152 43.1092 43.5844 43.1755 44.2015C43.2019 44.464 43.2417 44.7397 43.4274 44.9366C43.4936 45.0415 43.4274 44.8708 43.4274 44.8184C43.4141 44.6477 43.4539 44.464 43.507 44.3065C43.5732 44.0702 43.6394 43.9259 43.7854 43.7158C44.0371 43.4007 44.0638 43.4269 44.5011 43.2958C44.5939 43.2694 44.6735 43.2958 45.005 43.2958C45.3629 43.2958 45.734 43.2958 46.0522 43.0989C46.251 42.9939 46.4763 42.9282 46.609 42.7313C46.7416 42.5082 46.8078 42.2587 46.8476 41.9962C46.8741 41.9701 46.9007 41.9569 46.9272 41.9307C46.9405 41.9307 46.9669 41.9307 46.9802 41.9307C47.0996 41.9307 47.2189 41.9175 47.3382 41.9307C47.3646 41.9307 47.3911 41.9307 47.4175 41.9307C47.4309 41.9307 47.4573 41.9307 47.484 41.9307C47.484 41.9307 47.4971 41.9307 47.5369 41.9307C47.696 41.9701 47.8419 42.0224 48.001 41.9831C48.2661 41.9175 48.4252 41.6286 48.3456 41.3662L48.3721 41.3794Z" fill="#040000"/>
      <path d="M48.4113 52.9158C48.3317 52.8897 48.292 52.7715 48.3582 52.7059C48.451 52.614 48.5968 52.5746 48.7161 52.5352C48.8752 52.4959 49.021 52.4433 49.1669 52.3909C49.4585 52.299 49.7502 52.207 50.0417 52.1021C49.9888 50.7631 49.3658 49.6869 48.4775 49.5555C47.4303 49.398 46.4096 50.632 46.2107 52.299C46.0118 53.9659 46.7011 55.4492 47.7485 55.5937C48.663 55.7248 49.5513 54.8061 49.896 53.4672C49.4187 53.2309 48.915 53.0734 48.4113 52.9028V52.9158Z" fill="#040000"/>
      <path d="M36.0567 94.0154L29.7067 91.5084L28.5137 92.7948C28.2751 93.0441 28.1027 93.0705 27.7447 92.9259L21.249 90.3532C21.0766 90.2877 21.0634 90.1433 21.0899 90.0514C21.1297 89.9594 21.2357 89.8677 21.355 89.7495L35.7121 75.8096L42.6586 78.553L43.3612 98.4521C43.3612 98.5965 43.3612 98.7672 43.3347 98.8459C43.295 98.9377 43.189 99.0296 43.0166 98.9509L36.5208 96.3782C36.1629 96.2339 36.0567 96.0893 36.0567 95.7613L36.0833 94.0154H36.0567ZM33.4982 87.4261L36.1098 88.4632V88.0036C36.1495 86.6649 36.4544 84.2233 36.4544 84.2233L36.2158 84.1316C36.2158 84.1316 34.7311 86.1136 33.8296 87.0981L33.485 87.4393L33.4982 87.4261Z" fill="#040000"/>
      <path d="M62.6895 79.9703C62.6895 79.7734 62.875 79.5633 63.0606 79.5633L69.5168 79.4189C69.7023 79.4189 69.9011 79.6158 69.9011 79.8127L70.1265 89.4079C70.2724 95.866 66.5605 99.817 60.0381 99.9614C53.5423 100.106 49.6316 96.3254 49.4858 89.8543L49.2605 80.2591C49.2605 80.0622 49.446 79.8521 49.6316 79.8521L56.0876 79.7078C56.2733 79.7078 56.4721 79.9047 56.4721 80.1016L56.6841 89.526C56.7506 92.2563 57.9568 93.6607 59.879 93.6214C61.841 93.582 62.9546 92.1251 62.8884 89.3949L62.6762 79.9703H62.6895Z" fill="#040000"/>
      <path d="M89.1771 86.7827C89.7472 85.5489 90.0521 84.5251 90.0521 84.5251L90.1714 84.4857L92.8492 91.6131C92.9155 91.7838 93.1674 91.9019 93.3396 91.8232L99.4643 89.4867C99.6499 89.421 99.756 89.1717 99.6896 89.001L93.3265 72.029C93.2601 71.8583 93.0083 71.7401 92.8359 71.8189L87.4271 73.8798L83.5828 82.1492C83.0524 83.2911 82.8007 84.1968 82.8007 84.1968L82.7078 84.2362L80.0299 77.1088C79.9637 76.9381 79.7118 76.8199 79.5394 76.8987L73.4149 79.2351C73.2293 79.3009 73.1232 79.5502 73.1896 79.7209L79.5527 96.6929C79.6189 96.8636 79.8709 96.9818 80.0433 96.903L85.4521 94.8422L89.1638 86.7827H89.1771Z" fill="#040000"/>
      <path d="M15.9595 58.8096C15.8667 59.4922 15.8269 60.7392 15.8269 61.2509C15.8269 63.115 15.9462 63.85 16.6091 63.85C17.2719 63.85 17.3249 62.393 17.3249 61.7367C17.3249 60.2796 16.7681 59.3215 15.9727 58.8096H15.9595Z" fill="#040000"/>
      <path d="M12.6986 53.5215C5.75211 53.5215 0.104736 57.0787 0.104736 61.4497C0.104736 65.8207 5.73884 69.3779 12.6986 69.3779C19.6585 69.3779 25.2926 65.8207 25.2926 61.4497C25.2926 57.0787 19.6585 53.5215 12.6986 53.5215ZM10.1931 65.965C9.26514 65.965 7.36943 65.8339 6.38844 65.6893C6.11003 65.2955 6.05702 64.9937 6.05702 64.6525C6.05702 63.7861 6.49449 63.2873 7.25012 63.1036C9.02651 61.2134 9.53028 60.3996 9.53028 59.5726C9.53028 59.1001 9.11932 58.8376 8.42997 58.7195C8.35043 59.1788 8.31066 59.5726 8.25762 60.439C8.2046 60.4916 7.78038 60.5571 7.55503 60.5571C6.86566 60.5571 6.25586 60.0058 6.25586 59.0213C6.25586 57.5906 7.05126 56.8424 8.27088 56.7898C8.77464 56.6061 9.11932 56.5142 9.63633 56.5142C11.479 56.5142 12.407 57.9187 12.407 59.3625C12.407 60.8064 11.4392 61.8173 9.50375 63.5104C9.71586 63.5236 9.95449 63.563 10.1136 63.563C10.5908 63.563 10.9222 63.4449 11.479 62.9855C12.1551 63.156 12.513 63.7599 12.513 64.298C12.513 65.3219 11.6381 65.965 10.2064 65.965H10.1931ZM16.2647 66.0308C14.2629 66.0308 12.9638 64.9937 12.9638 61.8303C12.9638 59.5988 13.5603 58.4438 14.5678 57.8005C14.9655 56.908 15.6814 56.4354 16.5696 56.4354C18.7702 56.4354 20.1489 58.05 20.1489 60.5965C20.1489 63.7073 19.0486 66.0176 16.278 66.0176L16.2647 66.0308Z" fill="#040000"/>
      <path d="M109.3 53.4805C102.34 53.4805 96.7061 57.0509 96.7061 61.4744C96.7061 65.8978 102.34 69.4682 109.3 69.4682C116.26 69.4682 121.894 65.8978 121.894 61.4744C121.894 57.0509 116.26 53.4805 109.3 53.4805ZM106.702 66.4097C105.813 66.4097 104.011 66.2654 103.082 66.1209C102.817 65.7141 102.778 65.3859 102.778 65.0314C102.778 64.1259 103.188 63.6008 103.904 63.4039C105.588 61.4219 106.065 60.5817 106.065 59.7155C106.065 59.2166 105.668 58.9541 105.018 58.8228C104.938 59.3085 104.899 59.7155 104.859 60.6211C104.806 60.6736 104.395 60.7524 104.183 60.7524C103.533 60.7524 102.95 60.1879 102.95 59.151C102.95 57.6546 103.706 56.8672 104.872 56.8146C105.349 56.6177 105.681 56.5257 106.171 56.5257C107.921 56.5257 108.809 57.9828 108.809 59.5054C108.809 61.028 107.895 62.0781 106.052 63.837C106.251 63.8502 106.476 63.8896 106.622 63.8896C107.086 63.8896 107.391 63.7583 107.921 63.2857C108.557 63.4694 108.902 64.0865 108.902 64.664C108.902 65.7273 108.067 66.4097 106.702 66.4097ZM112.521 66.6328C110.97 66.6328 109.061 64.8739 109.061 64.2964C109.061 63.942 109.764 63.1808 110.016 63.1808C110.268 63.1808 111.182 63.9684 111.951 63.9684C112.72 63.9684 113.555 63.4564 113.555 62.9577C113.555 62.5639 113.396 62.4587 113.078 62.4587C112.76 62.4587 111.925 62.8002 111.01 62.8002C110.095 62.8002 109.605 61.855 109.605 61.3563C109.605 60.8573 109.817 60.5817 110.307 60.5817C112.349 60.5817 113.821 59.6497 113.821 58.6652C113.821 58.3504 113.648 58.1665 113.383 58.1665C112.508 58.1665 111.845 59.978 111.116 59.978C110.387 59.978 109.34 58.6653 109.34 58.2978C109.34 57.8515 110.97 56.3552 112.442 56.3552C113.913 56.3552 115.955 57.8778 115.955 59.2036C115.955 60.5293 115.027 61.435 115.027 61.435C115.027 61.435 116.286 62.0126 116.286 63.7321C116.286 65.4516 114.059 66.6198 112.495 66.6198L112.521 66.6328Z" fill="#040000"/>
    </g>
  </g>
  <defs>
    <clipPath id="clip0_491_513">
      <rect width="121.789" height="122.474" fill="white" transform="translate(0.105225 0.338867)"/>
    </clipPath>
  </defs>
</svg>