<svg xmlns="http://www.w3.org/2000/svg" width="123" height="130" viewBox="0 0 123 130" fill="none">
  <path fill-rule="evenodd" clip-rule="evenodd" d="M48.7439 42.1426C53.6246 44.1593 57.4891 46.2225 57.9975 46.8768L58.2541 47.2472C58.7272 47.9915 59.2769 49.1578 59.4487 49.7609C59.4941 49.9197 59.5448 50.3446 59.6151 50.9251L59.6172 50.9437C59.8633 52.9893 60.3384 56.9356 61.5726 58.0806C62.7914 59.2111 65.5978 59.9286 66.9475 59.7846C69.1627 59.7976 70.6879 58.4055 71.6603 57.0139C72.398 55.9592 72.9243 54.7615 73.2917 53.7874C79.1642 56.9675 84.1257 57.8253 87.9123 58.4797L88.051 58.5034L88.6911 58.6148C91.3806 59.0848 95.9756 59.2271 98.3258 59.0252C102.485 58.6672 105.313 57.3784 107.215 55.7505C109.111 54.1273 109.984 52.254 110.387 50.8969C111.15 48.3133 111.414 45.3388 110.18 42.6151C106.737 35.0117 98.8044 23.3889 81.7403 19.6289C82.2232 13.1207 81.6445 8.32782 80.0423 5.08618C79.2016 3.38511 78.0681 2.0896 76.6507 1.2284C75.2363 0.368962 73.6266 -0.00488281 71.9143 -0.00488281C70.0835 -0.00488281 68.1646 0.660001 66.3729 1.68425C64.5677 2.7163 62.8058 4.16132 61.2673 5.84426C58.2276 9.16947 55.8583 13.657 56.0215 18.0237C56.048 18.739 56.1503 19.4174 56.3155 20.0588C51.1846 20.8294 45.7791 23.2113 41.2013 25.7244C36.2091 28.4648 32.061 31.4405 30.1035 32.9119C28.6656 33.9978 29.187 36.2621 30.9285 36.6284C37.701 38.048 43.9188 40.1486 48.7439 42.1426ZM92.4378 36.9355C89.7027 36.9355 87.6291 39.1764 87.6291 41.76C87.6291 44.3447 89.7036 46.5824 92.4378 46.5824C95.1721 46.5824 97.247 44.3447 97.247 41.76C97.247 39.1737 95.173 36.9355 92.4378 36.9355ZM76.8261 59.3626C76.1998 58.8454 75.6497 58.3906 75.2114 57.9946C74.8707 57.6883 74.3849 57.756 74.1389 58.1444C72.6121 60.5684 70.5679 62.4221 66.7952 62.3652C58.04 62.2371 57.4305 56.3104 57.0208 52.3253C56.8841 50.9918 56.7692 49.8745 56.379 49.2659C54.1204 45.7505 35.9273 39.123 22.6975 37.379C18.4157 36.813 12.235 37.7483 8.21405 40.1024C0.609608 44.5555 -1.76678 55.1738 1.42767 62.6523C6.12156 73.6336 52.7093 91.8001 57.809 92.3745C60.4634 92.6744 61.8846 91.75 63.5032 90.6971C64.9984 89.7247 66.6623 88.6429 69.6216 88.3143C75.7792 87.6302 78.4647 93.4175 78.4647 93.4175C78.4647 93.4175 78.572 94.5683 79.4532 94.1333C81.6193 93.065 86.721 90.0709 88.2731 81.8807C89.9353 70.1971 81.3811 63.1274 76.8261 59.3626ZM114.093 58.5047C114.359 56.9168 112.182 56.06 111.367 57.5512L99.8489 78.5195C99.2941 79.5202 100.039 80.7006 101.129 80.7006H111.343L107.234 93.9813L107.232 93.9867C106.731 95.634 108.963 96.6471 109.871 95.2025L109.876 95.1965L122.296 75.1994L122.3 75.1928C122.909 74.1995 122.178 72.9216 121.013 72.9522L111.529 73.2102L114.092 58.5127L114.093 58.5047ZM13.4257 76.0302C12.8489 75.6428 12.2035 75.7629 11.7971 76.0366C11.4086 76.2983 11.1137 76.7679 11.127 77.3312C11.2888 84.1315 15.5487 96.4157 24.2032 107.297C32.8969 118.227 46.1451 127.892 64.3977 129.182C78.8975 130.206 89.3931 124.991 96.5025 118.86C103.578 112.758 107.306 105.747 108.371 103.057C108.979 101.517 106.987 100.227 105.86 101.507C92.4117 116.768 79.1338 121.598 67.826 120.894C57.7219 120.265 48.9924 115.206 42.9236 108.83C55.5509 111.36 65.3966 106.751 69.2057 104.262C71.6225 102.682 73.8755 100.807 75.049 98.8277C75.6462 97.8206 76.0227 96.6877 75.8901 95.5032C75.7547 94.2907 75.1088 93.2251 74.0462 92.3365C73.0225 91.4806 71.9975 90.9772 70.9271 90.8285C69.8583 90.6804 68.8783 90.905 67.9809 91.2703C67.1043 91.6271 66.2324 92.1507 65.3929 92.6595L65.262 92.7389C64.4399 93.2372 63.6066 93.7427 62.6792 94.1954C60.4769 95.2696 58.1465 95.0563 55.3822 94.3959C50.1041 93.1337 40.7453 89.3029 32.0596 85.3622C23.3685 81.4194 15.5818 77.4718 13.4257 76.0302ZM90.2789 41.76C90.2789 40.4163 91.3272 39.469 92.4378 39.469C93.5496 39.469 94.5972 40.4151 94.5972 41.76C94.5972 43.1025 93.55 44.0487 92.4378 44.0487C91.3261 44.0487 90.2789 43.1025 90.2789 41.76Z" fill="#82DCE1"/>
</svg>