<svg xmlns="http://www.w3.org/2000/svg" width="123" height="124" viewBox="0 0 123 124" fill="none">
  <g clip-path="url(#clip0_491_617)">
    <mask id="mask0_491_617" style="mask-type:luminance" maskUnits="userSpaceOnUse" x="0" y="0" width="123" height="123">
      <path d="M122.952 0.833984H0.47876V122.097H122.952V0.833984Z" fill="white"/>
    </mask>
    <g mask="url(#mask0_491_617)">
      <path d="M3.29004 6.91699L4.51791 16.9091H25.2035L34.323 6.91699H3.29004Z" fill="#8DBDD1"/>
      <path d="M36.2052 6.91699L2.3938 42.83L7.90578 52.1478L39.3644 17.6723L36.2052 6.91699Z" fill="#8DBDD1"/>
      <path d="M12.0056 49.6178L30.5582 37.8377L26.7938 33.1787L12.0056 49.6178Z" fill="#8DBDD1"/>
      <path d="M27.8696 31.9816L44.6074 54.6767V39.1694L38.2215 30.3176L30.5585 29.5322L27.8696 31.9816Z" fill="#8DBDD1"/>
      <path d="M45.6836 2.96374V18.3379L56.1027 25.1266V2.63097L57.3127 0.833984H47.1625L45.6836 2.96374Z" fill="#8DBDD1"/>
      <path d="M45.6836 35.1102V56.0749L56.1698 52.1483V29.0537L45.6836 35.1102Z" fill="#8DBDD1"/>
      <path d="M57.3123 16.2754V24.7278H67.3953L61.7489 16.2754H57.3123Z" fill="#8DBDD1"/>
      <path d="M67.3953 25.7256H57.3123V28.1217H67.3953V25.7256Z" fill="#8DBDD1"/>
      <path d="M57.3123 29.0537V37.7723H61.7489L67.3953 29.0537H57.3123Z" fill="#8DBDD1"/>
      <path d="M70.3528 12.6145H107.727L97.7783 2.03223H80.7045L70.3528 12.6145Z" fill="#8DBDD1"/>
      <path d="M81.3768 13.8789H70.3528V25.7256H81.3768V13.8789Z" fill="#8DBDD1"/>
      <path d="M107.727 13.8789H96.8372V25.7256H107.727V13.8789Z" fill="#8DBDD1"/>
      <path d="M97.8463 37.5059H80.8398L70.824 26.9238H107.728L97.8463 37.5059Z" fill="#8DBDD1"/>
      <path d="M68.8071 39.1689L70.0843 49.8177H119.155L109.004 39.1689H68.8071Z" fill="#8DBDD1"/>
      <path d="M110.146 2.96398V38.9037L120.633 49.5525V2.96398C121.099 2.60902 121.327 2.40492 121.453 2.28514C121.475 2.26295 121.708 2.03223 121.708 2.03223H110.55C110.527 2.06328 110.505 2.09877 110.483 2.13428C110.303 2.41824 110.205 2.70664 110.146 2.96398Z" fill="#8DBDD1"/>
      <path d="M110.146 50.751V58.1386L119.826 50.751H110.146Z" fill="#8DBDD1"/>
      <path d="M11.3345 58.4043C11.1553 58.5816 10.9581 58.8035 10.7609 59.083C10.5279 59.4203 10.3666 59.7397 10.259 60.0016V73.0463H20.6108V60.1346C20.7004 59.8729 20.8349 59.5667 21.0366 59.2427C21.1396 59.0743 21.2471 58.9278 21.3503 58.8035L11.3345 58.4043Z" fill="#8DBDD1"/>
      <path d="M10.9299 74.377L20.8784 84.5598H53.7486V74.377H10.9299Z" fill="#8DBDD1"/>
      <path d="M7.90601 86.2917H45.6833V85.4266L20.4761 85.8614L17.7873 82.8975L7.90601 86.2917Z" fill="#8DBDD1"/>
      <path d="M61.3983 87.2236H2.72925V97.5395H61.3983V87.2236Z" fill="#8DBDD1"/>
      <path d="M37.0789 98.3369V102.596L53.7493 98.3369H37.0789Z" fill="#8DBDD1"/>
      <path d="M30.29 98.6709L25.4502 102.598V119.17H36.2727V98.6709H30.29Z" fill="#8DBDD1"/>
      <path d="M94.2152 64.9268H69.4114V75.5091H94.2152V64.9268Z" fill="#8DBDD1"/>
      <path d="M95.1562 64.3955V81.6332H105.508V74.7781L95.1562 64.3955Z" fill="#8DBDD1"/>
      <path d="M77.9482 82.6309V93.2797H96.1647L106.382 82.6309H77.9482Z" fill="#8DBDD1"/>
      <path d="M77.0071 82.6309V110.784L67.0586 100.8V92.0151L77.0071 82.6309Z" fill="#8DBDD1"/>
      <path d="M77.9482 101.198V111.133C91.7506 111.27 105.553 111.408 119.355 111.55L109.031 101.203H77.9482V101.198Z" fill="#8DBDD1"/>
      <path d="M110.751 61.8643C110.46 62.2193 110.168 62.5742 109.877 62.9291V100.732C113.323 104.233 116.769 107.73 120.215 111.23C120.332 95.1639 120.448 79.0977 120.565 63.0312C120.767 62.6985 120.968 62.3656 121.17 62.0329L110.751 61.8643Z" fill="#8DBDD1"/>
      <path d="M109.743 112.313V122.097L120.565 113.645V112.313H109.743Z" fill="#8DBDD1"/>
    </g>
  </g>
  <defs>
    <clipPath id="clip0_491_617">
      <rect width="122.474" height="123.158" fill="white" transform="translate(0.480713 0.0742188)"/>
    </clipPath>
  </defs>
</svg>